<svg version="1.1" viewBox="0.0 0.0 166.0 292.0" fill="none" stroke="none" stroke-linecap="square" stroke-miterlimit="10" xmlns:xlink="http://www.w3.org/1999/xlink" xmlns="http://www.w3.org/2000/svg"><clipPath id="p.0"><path d="m0 0l166.0 0l0 292.0l-166.0 0l0 -292.0z" clip-rule="nonzero"/></clipPath><g clip-path="url(#p.0)"><path fill="#000000" fill-opacity="0.0" d="m0 0l166.0 0l0 292.0l-166.0 0z" fill-rule="evenodd"/><path fill="#ffffff" d="m32.480316 50.283466c0 -23.352514 22.526775 -42.283466 50.314957 -42.283466c27.788185 0 50.314957 18.930952 50.314957 42.283466c0 23.352512 -22.526772 42.283466 -50.314957 42.283466c-27.788181 0 -50.314957 -18.930954 -50.314957 -42.283466z" fill-rule="evenodd"/><path stroke="#000000" stroke-width="1.0" stroke-linejoin="round" stroke-linecap="butt" d="m32.480316 50.283466c0 -23.352514 22.526775 -42.283466 50.314957 -42.283466c27.788185 0 50.314957 18.930952 50.314957 42.283466c0 23.352512 -22.526772 42.283466 -50.314957 42.283466c-27.788181 0 -50.314957 -18.930954 -50.314957 -42.283466z" fill-rule="evenodd"/><path fill="#000000" fill-opacity="0.0" d="m82.79527 92.561844l0.88188934 93.10237" fill-rule="evenodd"/><path stroke="#000000" stroke-width="1.0" stroke-linejoin="round" stroke-linecap="butt" d="m82.79527 92.561844l0.88188934 93.10237" fill-rule="evenodd"/><path fill="#000000" fill-opacity="0.0" d="m81.926506 183.08261l-45.98425 89.66928" fill-rule="evenodd"/><path stroke="#000000" stroke-width="1.0" stroke-linejoin="round" stroke-linecap="butt" d="m81.926506 183.08261l-45.98425 89.66928" fill-rule="evenodd"/><path fill="#000000" fill-opacity="0.0" d="m83.661415 185.64345l47.716545 93.95274" fill-rule="evenodd"/><path stroke="#000000" stroke-width="1.0" stroke-linejoin="round" stroke-linecap="butt" d="m83.661415 185.64345l47.716545 93.95274" fill-rule="evenodd"/><path fill="#000000" fill-opacity="0.0" d="m85.396324 139.52515l65.07087 -41.007874" fill-rule="evenodd"/><path stroke="#000000" stroke-width="1.0" stroke-linejoin="round" stroke-linecap="butt" d="m85.396324 139.52515l65.07087 -41.007874" fill-rule="evenodd"/><path fill="#000000" fill-opacity="0.0" d="m78.456696 137.81706l-58.110237 -34.173233" fill-rule="evenodd"/><path stroke="#000000" stroke-width="1.0" stroke-linejoin="round" stroke-linecap="butt" d="m78.456696 137.81706l-58.110237 -34.173233" fill-rule="evenodd"/><path fill="#cfe2f3" d="m65.44357 38.744328c0 -2.3569946 0.19741058 -4.2677155 0.44094086 -4.2677155c0.11694336 0 0.22910309 0.44963455 0.3117981 1.2499847c0.08268738 0.800354 0.12915039 1.8858643 0.12915039 3.0177307c0 2.3569946 -0.19741821 4.2677193 -0.4409485 4.2677193c-0.11694336 0 -0.22910309 -0.44963455 -0.3117981 -1.2499847c-0.08268738 -0.800354 -0.12914276 -1.8858643 -0.12914276 -3.0177345z" fill-rule="evenodd"/><path stroke="#000000" stroke-width="1.0" stroke-linejoin="round" stroke-linecap="butt" d="m65.44357 38.744328c0 -2.3569946 0.19741058 -4.2677155 0.44094086 -4.2677155c0.11694336 0 0.22910309 0.44963455 0.3117981 1.2499847c0.08268738 0.800354 0.12915039 1.8858643 0.12915039 3.0177307c0 2.3569946 -0.19741821 4.2677193 -0.4409485 4.2677193c-0.11694336 0 -0.22910309 -0.44963455 -0.3117981 -1.2499847c-0.08268738 -0.800354 -0.12914276 -1.8858643 -0.12914276 -3.0177345z" fill-rule="evenodd"/><path fill="#cfe2f3" d="m90.98574 38.26985c0 -2.3569946 0.19741821 -4.2677155 0.44094086 -4.2677155c0.11694336 0 0.22910309 0.44963455 0.3117981 1.2499847c0.08268738 0.800354 0.12915039 1.8858643 0.12915039 3.0177307c0 2.3569984 -0.19741821 4.2677193 -0.4409485 4.2677193c-0.11694336 0 -0.22910309 -0.44963455 -0.31179047 -1.2499847c-0.08269501 -0.800354 -0.12915039 -1.8858643 -0.12915039 -3.0177345z" fill-rule="evenodd"/><path stroke="#000000" stroke-width="1.0" stroke-linejoin="round" stroke-linecap="butt" d="m90.98574 38.26985c0 -2.3569946 0.19741821 -4.2677155 0.44094086 -4.2677155c0.11694336 0 0.22910309 0.44963455 0.3117981 1.2499847c0.08268738 0.800354 0.12915039 1.8858643 0.12915039 3.0177307c0 2.3569984 -0.19741821 4.2677193 -0.4409485 4.2677193c-0.11694336 0 -0.22910309 -0.44963455 -0.31179047 -1.2499847c-0.08269501 -0.800354 -0.12915039 -1.8858643 -0.12915039 -3.0177345z" fill-rule="evenodd"/><path fill="#f4cccc" d="m58.412075 81.50551c4.645668 4.6603165 45.573055 2.208664 49.112858 -2.941986c3.5398102 -5.1506577 -19.688538 -28.45227 -27.874016 -27.96194c-8.185478 0.49033356 -25.884514 26.243603 -21.238842 30.903927z" fill-rule="evenodd"/><path stroke="#000000" stroke-width="1.0" stroke-linejoin="round" stroke-linecap="butt" d="m58.412075 81.50551c4.645668 4.6603165 45.573055 2.208664 49.112858 -2.941986c3.5398102 -5.1506577 -19.688538 -28.45227 -27.874016 -27.96194c-8.185478 0.49033356 -25.884514 26.243603 -21.238842 30.903927z" fill-rule="evenodd"/><path fill="#000000" fill-opacity="0.0" d="m62.27034 24.27559l-4.9133835 7.401575" fill-rule="evenodd"/><path stroke="#000000" stroke-width="1.0" stroke-linejoin="round" stroke-linecap="butt" d="m62.27034 24.27559l-4.9133835 7.401575" fill-rule="evenodd"/><path fill="#000000" fill-opacity="0.0" d="m89.35958 22.514435l9.51181 7.401575" fill-rule="evenodd"/><path stroke="#000000" stroke-width="1.0" stroke-linejoin="round" stroke-linecap="butt" d="m89.35958 22.514435l9.51181 7.401575" fill-rule="evenodd"/></g></svg>