<svg version="1.1" viewBox="0.0 0.0 513.5433070866142 637.5905511811023" fill="none" stroke="none" stroke-linecap="square" stroke-miterlimit="10" xmlns:xlink="http://www.w3.org/1999/xlink" xmlns="http://www.w3.org/2000/svg"><clipPath id="p.0"><path d="m0 0l513.54333 0l0 637.5906l-513.54333 0l0 -637.5906z" clip-rule="nonzero"/></clipPath><g clip-path="url(#p.0)"><path fill="#000000" fill-opacity="0.0" d="m0 0l513.54333 0l0 637.5906l-513.54333 0z" fill-rule="evenodd"/><path fill="#000000" fill-opacity="0.0" d="m768.57745 713.9265c65.35565 0 130.69415 -2.6010742 196.04987 -2.6010742" fill-rule="evenodd"/><path stroke="#ff0000" stroke-width="1.0" stroke-linejoin="round" stroke-linecap="butt" d="m768.57745 713.9265c65.35565 0 130.69415 -2.6010742 196.04987 -2.6010742" fill-rule="evenodd"/><path fill="#000000" fill-opacity="0.0" d="m-3.839895 11.844999c24.128067 -0.35570526 47.589546 -3.077489 71.113716 -5.084222c12.461693 -1.0630465 26.456543 -4.08072 37.976074 -2.0331678c37.375717 6.6433926 71.969025 20.707258 113.232285 19.06453c47.611237 -1.8954468 94.06738 -6.654108 140.84973 -10.422047c24.375 -1.9632063 47.715332 -7.935486 72.496124 -6.862918c30.172241 1.3059201 54.645905 9.825826 82.85239 13.980308" fill-rule="evenodd"/><path stroke="#ff0000" stroke-width="1.0" stroke-linejoin="round" stroke-linecap="butt" d="m-3.839895 11.844999c24.128067 -0.35570526 47.589546 -3.077489 71.113716 -5.084222c12.461693 -1.0630465 26.456543 -4.08072 37.976074 -2.0331678c37.375717 6.6433926 71.969025 20.707258 113.232285 19.06453c47.611237 -1.8954468 94.06738 -6.654108 140.84973 -10.422047c24.375 -1.9632063 47.715332 -7.935486 72.496124 -6.862918c30.172241 1.3059201 54.645905 9.825826 82.85239 13.980308" fill-rule="evenodd"/><path fill="#000000" fill-opacity="0.0" d="m460.90814 86.03674c-14.193329 14.193321 -34.21515 21.118248 -52.236237 29.958008c-24.701202 12.116516 -52.752045 25.27089 -79.88974 20.742783c-36.0412 -6.0137024 -65.16632 -33.302475 -99.09712 -46.860893c-13.956055 -5.5766983 -29.630127 5.137306 -44.553802 6.9133835c-16.96164 2.0186157 -33.830566 5.8194427 -49.931763 11.522308c-13.775055 4.878975 -29.335503 3.319641 -43.01838 8.451447c-9.581001 3.5933914 -16.616951 12.331741 -26.118103 16.13124c-8.505745 3.401413 -22.06514 3.482666 -24.580055 12.291336" fill-rule="evenodd"/><path stroke="#ff0000" stroke-width="1.0" stroke-linejoin="round" stroke-linecap="butt" d="m460.90814 86.03674c-14.193329 14.193321 -34.21515 21.118248 -52.236237 29.958008c-24.701202 12.116516 -52.752045 25.27089 -79.88974 20.742783c-36.0412 -6.0137024 -65.16632 -33.302475 -99.09712 -46.860893c-13.956055 -5.5766983 -29.630127 5.137306 -44.553802 6.9133835c-16.96164 2.0186157 -33.830566 5.8194427 -49.931763 11.522308c-13.775055 4.878975 -29.335503 3.319641 -43.01838 8.451447c-9.581001 3.5933914 -16.616951 12.331741 -26.118103 16.13124c-8.505745 3.401413 -22.06514 3.482666 -24.580055 12.291336" fill-rule="evenodd"/><path fill="#000000" fill-opacity="0.0" d="m42.249344 257.3423c19.44897 -38.89795 62.786972 -80.84976 106.0105 -76.04988c42.980347 4.772873 65.87932 56.04036 99.09448 83.732285c12.402817 10.340363 31.17662 -8.439301 46.85826 -12.291336c31.30191 -7.68898 63.047638 -13.904739 93.71918 -23.81366c20.127777 -6.5025787 43.18454 -15.110321 62.989502 -7.6824036" fill-rule="evenodd"/><path stroke="#ff0000" stroke-width="1.0" stroke-linejoin="round" stroke-linecap="butt" d="m42.249344 257.3423c19.44897 -38.89795 62.786972 -80.84976 106.0105 -76.04988c42.980347 4.772873 65.87932 56.04036 99.09448 83.732285c12.402817 10.340363 31.17662 -8.439301 46.85826 -12.291336c31.30191 -7.68898 63.047638 -13.904739 93.71918 -23.81366c20.127777 -6.5025787 43.18454 -15.110321 62.989502 -7.6824036" fill-rule="evenodd"/><path fill="#000000" fill-opacity="0.0" d="m478.57742 174.37796c-24.944824 0 -50.361298 0.678772 -74.514435 6.913376c-18.281677 4.7190247 -34.17209 21.31308 -53.00525 19.97113c-18.516327 -1.3193665 -32.409485 -19.863388 -50.69815 -23.044617c-13.660431 -2.376175 -30.654327 5.586441 -41.48294 -3.0734863c-10.33107 -8.262024 -15.963165 -26.884521 -29.191605 -26.884521" fill-rule="evenodd"/><path stroke="#ff0000" stroke-width="1.0" stroke-linejoin="round" stroke-linecap="butt" d="m478.57742 174.37796c-24.944824 0 -50.361298 0.678772 -74.514435 6.913376c-18.281677 4.7190247 -34.17209 21.31308 -53.00525 19.97113c-18.516327 -1.3193665 -32.409485 -19.863388 -50.69815 -23.044617c-13.660431 -2.376175 -30.654327 5.586441 -41.48294 -3.0734863c-10.33107 -8.262024 -15.963165 -26.884521 -29.191605 -26.884521" fill-rule="evenodd"/><path fill="#000000" fill-opacity="0.0" d="m23.044619 337.99954c13.405539 -14.8967285 34.33203 -22.02707 53.774284 -26.887146c14.641312 -3.6599426 28.984459 -14.474274 43.784775 -11.522308c5.5756073 1.1120911 6.2974854 9.500977 9.98687 13.826782c10.339706 12.123291 18.24582 30.345886 33.800537 33.800507c13.339844 2.962738 26.38881 -7.4966736 39.94487 -9.217834c20.764969 -2.636444 44.606018 2.7329102 60.687668 16.131226" fill-rule="evenodd"/><path stroke="#ff0000" stroke-width="1.0" stroke-linejoin="round" stroke-linecap="butt" d="m23.044619 337.99954c13.405539 -14.8967285 34.33203 -22.02707 53.774284 -26.887146c14.641312 -3.6599426 28.984459 -14.474274 43.784775 -11.522308c5.5756073 1.1120911 6.2974854 9.500977 9.98687 13.826782c10.339706 12.123291 18.24582 30.345886 33.800537 33.800507c13.339844 2.962738 26.38881 -7.4966736 39.94487 -9.217834c20.764969 -2.636444 44.606018 2.7329102 60.687668 16.131226" fill-rule="evenodd"/><path fill="#000000" fill-opacity="0.0" d="m263.48557 317.2598c57.892853 -7.242798 116.55975 -34.502533 173.60892 -22.278229c5.5990295 1.1997375 5.3325195 10.143097 7.682434 15.364838c5.7832947 12.851044 6.482361 29.053741 1.5354309 42.24933c-14.070587 37.532227 -74.37369 36.8714 -114.456696 36.8714c-23.09665 0 -46.799896 10.485291 -69.136505 4.608917c-19.582565 -5.151825 -39.508286 -8.914093 -59.15222 -13.826752c-14.8480835 -3.7132874 -28.479416 -13.826782 -43.784775 -13.826782" fill-rule="evenodd"/><path stroke="#ff0000" stroke-width="1.0" stroke-linejoin="round" stroke-linecap="butt" d="m263.48557 317.2598c57.892853 -7.242798 116.55975 -34.502533 173.60892 -22.278229c5.5990295 1.1997375 5.3325195 10.143097 7.682434 15.364838c5.7832947 12.851044 6.482361 29.053741 1.5354309 42.24933c-14.070587 37.532227 -74.37369 36.8714 -114.456696 36.8714c-23.09665 0 -46.799896 10.485291 -69.136505 4.608917c-19.582565 -5.151825 -39.508286 -8.914093 -59.15222 -13.826752c-14.8480835 -3.7132874 -28.479416 -13.826782 -43.784775 -13.826782" fill-rule="evenodd"/><path fill="#000000" fill-opacity="0.0" d="m92.18068 270.39896c-14.486557 18.12677 -41.323242 26.118103 -64.52756 26.118103c-10.806259 0 -19.804829 -15.328522 -19.204723 -26.118103c0.9590826 -17.243866 9.338658 -33.255325 13.829396 -49.931763c4.9129086 -18.244171 9.407846 -40.556 25.349081 -50.698166c23.052773 -14.666687 54.732094 -5.9732513 80.6588 -14.595795" fill-rule="evenodd"/><path stroke="#ff0000" stroke-width="1.0" stroke-linejoin="round" stroke-linecap="butt" d="m92.18068 270.39896c-14.486557 18.12677 -41.323242 26.118103 -64.52756 26.118103c-10.806259 0 -19.804829 -15.328522 -19.204723 -26.118103c0.9590826 -17.243866 9.338658 -33.255325 13.829396 -49.931763c4.9129086 -18.244171 9.407846 -40.556 25.349081 -50.698166c23.052773 -14.666687 54.732094 -5.9732513 80.6588 -14.595795" fill-rule="evenodd"/><path fill="#000000" fill-opacity="0.0" d="m351.05774 89.11128c17.42215 -2.4913101 35.72168 -1.5989761 52.236237 -7.682419c17.62555 -6.4926987 34.297546 -15.707184 49.931732 -26.118107c7.5354614 -5.0179176 14.805054 -13.959072 23.81366 -13.060368c16.655975 1.6616135 39.19104 8.487461 43.787415 24.58268c10.659912 37.32801 -54.898895 69.136475 -93.71918 69.136475" fill-rule="evenodd"/><path stroke="#ff0000" stroke-width="1.0" stroke-linejoin="round" stroke-linecap="butt" d="m351.05774 89.11128c17.42215 -2.4913101 35.72168 -1.5989761 52.236237 -7.682419c17.62555 -6.4926987 34.297546 -15.707184 49.931732 -26.118107c7.5354614 -5.0179176 14.805054 -13.959072 23.81366 -13.060368c16.655975 1.6616135 39.19104 8.487461 43.787415 24.58268c10.659912 37.32801 -54.898895 69.136475 -93.71918 69.136475" fill-rule="evenodd"/><path fill="#000000" fill-opacity="0.0" d="m134.43144 63.757614c-30.116028 0 -60.821983 -17.142662 -89.87663 -9.217846c-16.82747 4.5897827 -30.67662 22.784718 -33.800526 39.94488c-0.8568945 4.7070694 9.044964 3.8425217 13.829397 3.8425217c15.41638 0 30.767363 -2.138153 46.089233 -3.8425217" fill-rule="evenodd"/><path stroke="#ff0000" stroke-width="1.0" stroke-linejoin="round" stroke-linecap="butt" d="m134.43144 63.757614c-30.116028 0 -60.821983 -17.142662 -89.87663 -9.217846c-16.82747 4.5897827 -30.67662 22.784718 -33.800526 39.94488c-0.8568945 4.7070694 9.044964 3.8425217 13.829397 3.8425217c15.41638 0 30.767363 -2.138153 46.089233 -3.8425217" fill-rule="evenodd"/><path fill="#000000" fill-opacity="0.0" d="m49.93176 430.18155c5.280796 -14.080139 16.762775 -27.451508 30.727032 -33.031494c11.165855 -4.4617615 21.12912 11.595398 32.26509 16.131226c33.941093 13.8246765 64.705956 34.956543 99.09449 47.62729c31.78891 11.712921 67.53906 8.024811 101.39896 6.913391c44.987976 -1.476654 93.94614 1.9751587 133.66403 -19.204712c11.397797 -6.0779724 19.208466 -17.417786 29.958008 -24.580048" fill-rule="evenodd"/><path stroke="#ff0000" stroke-width="1.0" stroke-linejoin="round" stroke-linecap="butt" d="m49.93176 430.18155c5.280796 -14.080139 16.762775 -27.451508 30.727032 -33.031494c11.165855 -4.4617615 21.12912 11.595398 32.26509 16.131226c33.941093 13.8246765 64.705956 34.956543 99.09449 47.62729c31.78891 11.712921 67.53906 8.024811 101.39896 6.913391c44.987976 -1.476654 93.94614 1.9751587 133.66403 -19.204712c11.397797 -6.0779724 19.208466 -17.417786 29.958008 -24.580048" fill-rule="evenodd"/><path fill="#000000" fill-opacity="0.0" d="m-2.304462 494.17218c9.598293 5.301941 22.997118 1.8272095 34.53081 1.8272095c28.16743 0 57.90219 -6.493927 84.48953 1.2174377c32.87094 9.533844 51.21216 41.493134 83.75403 51.77365c51.945328 16.410461 109.90723 22.100403 165.30408 18.272095c25.288177 -1.7475586 49.879883 -11.5269165 70.53009 -23.753723c23.583801 -13.963684 45.957336 -36.546204 74.93811 -36.546204" fill-rule="evenodd"/><path stroke="#ff0000" stroke-width="1.0" stroke-linejoin="round" stroke-linecap="butt" d="m-2.304462 494.17218c9.598293 5.301941 22.997118 1.8272095 34.53081 1.8272095c28.16743 0 57.90219 -6.493927 84.48953 1.2174377c32.87094 9.533844 51.21216 41.493134 83.75403 51.77365c51.945328 16.410461 109.90723 22.100403 165.30408 18.272095c25.288177 -1.7475586 49.879883 -11.5269165 70.53009 -23.753723c23.583801 -13.963684 45.957336 -36.546204 74.93811 -36.546204" fill-rule="evenodd"/><path fill="#000000" fill-opacity="0.0" d="m497.78217 581.51355c-86.118774 12.29364 -172.24191 40.905396 -258.87665 33.031494c-16.575607 -1.5065308 -33.730423 3.812622 -49.931763 0c-35.61508 -8.381287 -59.377365 -47.364014 -95.25459 -54.54071c-26.955452 -5.392029 -67.8419 8.66864 -74.514435 35.335938" fill-rule="evenodd"/><path stroke="#ff0000" stroke-width="1.0" stroke-linejoin="round" stroke-linecap="butt" d="m497.78217 581.51355c-86.118774 12.29364 -172.24191 40.905396 -258.87665 33.031494c-16.575607 -1.5065308 -33.730423 3.812622 -49.931763 0c-35.61508 -8.381287 -59.377365 -47.364014 -95.25459 -54.54071c-26.955452 -5.392029 -67.8419 8.66864 -74.514435 35.335938" fill-rule="evenodd"/><path fill="#000000" fill-opacity="0.0" d="m522.16833 479.34647c-12.57196 17.72348 -41.71106 17.107513 -63.68152 22.275574c-44.100372 10.373627 -89.25293 19.973785 -134.71057 19.973785c-23.14682 0 -48.6951 7.437317 -69.39723 -2.3045044c-5.134598 -2.4161987 -15.508148 -3.104187 -14.695084 -8.451416c2.631012 -17.303528 36.93921 -4.6089478 55.516663 -4.6089478c36.489105 0 74.418884 -1.0010986 108.58411 -13.057739" fill-rule="evenodd"/><path stroke="#ff0000" stroke-width="1.0" stroke-linejoin="round" stroke-linecap="butt" d="m522.16833 479.34647c-12.57196 17.72348 -41.71106 17.107513 -63.68152 22.275574c-44.100372 10.373627 -89.25293 19.973785 -134.71057 19.973785c-23.14682 0 -48.6951 7.437317 -69.39723 -2.3045044c-5.134598 -2.4161987 -15.508148 -3.104187 -14.695084 -8.451416c2.631012 -17.303528 36.93921 -4.6089478 55.516663 -4.6089478c36.489105 0 74.418884 -1.0010986 108.58411 -13.057739" fill-rule="evenodd"/><path fill="#000000" fill-opacity="0.0" d="m73.38709 351.05774c-15.847572 18.365295 -37.867474 28.50531 -53.723427 46.8609c-8.495486 9.834778 -7.7786884 28.282745 -3.9793444 41.480316c3.7560854 13.047302 20.623997 16.900269 32.498737 16.900269c3.1418686 0 4.2258797 -5.421295 5.969021 -8.448822c3.144268 -5.4610596 10.543171 -4.8377075 15.919643 -6.913391c18.852959 -7.2785645 43.785088 6.1703186 55.713097 24.580048" fill-rule="evenodd"/><path stroke="#ff0000" stroke-width="1.0" stroke-linejoin="round" stroke-linecap="butt" d="m73.38709 351.05774c-15.847572 18.365295 -37.867474 28.50531 -53.723427 46.8609c-8.495486 9.834778 -7.7786884 28.282745 -3.9793444 41.480316c3.7560854 13.047302 20.623997 16.900269 32.498737 16.900269c3.1418686 0 4.2258797 -5.421295 5.969021 -8.448822c3.144268 -5.4610596 10.543171 -4.8377075 15.919643 -6.913391c18.852959 -7.2785645 43.785088 6.1703186 55.713097 24.580048" fill-rule="evenodd"/><path fill="#000000" fill-opacity="0.0" d="m112.918976 521.4433c-21.505875 -8.317139 -47.01877 -9.128479 -67.02539 4.3986206c-12.758976 8.626709 -21.886889 25.187805 -30.584538 40.477295c-5.0185003 8.8220215 -11.892443 22.013733 -7.8084383 31.677124c10.34318 24.473694 40.818897 23.721985 61.166843 17.600464c14.167259 -4.262146 32.694725 -23.56781 42.94864 -9.678162" fill-rule="evenodd"/><path stroke="#ff0000" stroke-width="1.0" stroke-linejoin="round" stroke-linecap="butt" d="m112.918976 521.4433c-21.505875 -8.317139 -47.01877 -9.128479 -67.02539 4.3986206c-12.758976 8.626709 -21.886889 25.187805 -30.584538 40.477295c-5.0185003 8.8220215 -11.892443 22.013733 -7.8084383 31.677124c10.34318 24.473694 40.818897 23.721985 61.166843 17.600464c14.167259 -4.262146 32.694725 -23.56781 42.94864 -9.678162" fill-rule="evenodd"/><path fill="#000000" fill-opacity="0.0" d="m129.82152 245.81915c24.538223 -9.1992035 45.162766 27.010406 65.296585 43.78479c10.35437 8.626678 25.701385 9.986877 39.178482 9.986877" fill-rule="evenodd"/><path stroke="#ff0000" stroke-width="1.0" stroke-linejoin="round" stroke-linecap="butt" d="m129.82152 245.81915c24.538223 -9.1992035 45.162766 27.010406 65.296585 43.78479c10.35437 8.626678 25.701385 9.986877 39.178482 9.986877" fill-rule="evenodd"/><path fill="#000000" fill-opacity="0.0" d="m402.52756 269.63254c34.51877 0 86.47934 -28.740372 82.194214 -62.99211c-2.5932922 -20.72882 -43.54178 -1.5415192 -61.45404 -12.291351" fill-rule="evenodd"/><path stroke="#ff0000" stroke-width="1.0" stroke-linejoin="round" stroke-linecap="butt" d="m402.52756 269.63254c34.51877 0 86.47934 -28.740372 82.194214 -62.99211c-2.5932922 -20.72882 -43.54178 -1.5415192 -61.45404 -12.291351" fill-rule="evenodd"/><path fill="#000000" fill-opacity="0.0" d="m91.414696 182.0568c15.550301 -11.669373 37.403282 -13.0577545 56.845146 -13.0577545c11.533676 0 24.334152 -3.7858276 34.566925 1.5354462c24.448318 12.713654 42.117264 35.79857 65.296585 50.700775c18.743713 12.050522 49.00363 14.902939 66.83203 1.5354462" fill-rule="evenodd"/><path stroke="#ff9900" stroke-width="1.0" stroke-linejoin="round" stroke-linecap="butt" d="m91.414696 182.0568c15.550301 -11.669373 37.403282 -13.0577545 56.845146 -13.0577545c11.533676 0 24.334152 -3.7858276 34.566925 1.5354462c24.448318 12.713654 42.117264 35.79857 65.296585 50.700775c18.743713 12.050522 49.00363 14.902939 66.83203 1.5354462" fill-rule="evenodd"/><path fill="#000000" fill-opacity="0.0" d="m409.44095 149.02539c-33.589233 16.800354 -76.12402 21.351501 -112.15485 10.755905c-28.801025 -8.469528 -50.643402 -33.525055 -79.12337 -43.01838c-11.197739 -3.7325745 -23.370483 3.9460144 -34.56694 7.682419" fill-rule="evenodd"/><path stroke="#ff9900" stroke-width="1.0" stroke-linejoin="round" stroke-linecap="butt" d="m409.44095 149.02539c-33.589233 16.800354 -76.12402 21.351501 -112.15485 10.755905c-28.801025 -8.469528 -50.643402 -33.525055 -79.12337 -43.01838c-11.197739 -3.7325745 -23.370483 3.9460144 -34.56694 7.682419" fill-rule="evenodd"/><path fill="#000000" fill-opacity="0.0" d="m83.732285 31.496063c20.812416 2.5959969 39.53518 14.263985 59.91864 19.204723c11.884903 2.8807793 31.20961 0.5321541 34.566925 12.29134c6.7951355 23.8004 -44.111816 38.53807 -67.59843 30.727036" fill-rule="evenodd"/><path stroke="#ff9900" stroke-width="1.0" stroke-linejoin="round" stroke-linecap="butt" d="m83.732285 31.496063c20.812416 2.5959969 39.53518 14.263985 59.91864 19.204723c11.884903 2.8807793 31.20961 0.5321541 34.566925 12.29134c6.7951355 23.8004 -44.111816 38.53807 -67.59843 30.727036" fill-rule="evenodd"/><path fill="#000000" fill-opacity="0.0" d="m375.63977 56.845146c-21.429962 17.85424 -52.842224 24.34105 -80.65878 22.278214c-8.697235 -0.64497375 -17.46405 -2.617508 -26.118134 -1.5380554c-3.638153 0.4537964 -12.372681 1.8250198 -9.986877 4.608925c8.9730835 10.470276 26.675446 7.0056076 39.944885 10.755905c23.320831 6.5910797 46.605347 13.310059 69.90552 19.973747c5.7950745 1.6573563 11.688507 -3.0941238 17.669281 -3.842514c12.195374 -1.5260468 24.580933 0 36.8714 0" fill-rule="evenodd"/><path stroke="#ff9900" stroke-width="1.0" stroke-linejoin="round" stroke-linecap="butt" d="m375.63977 56.845146c-21.429962 17.85424 -52.842224 24.34105 -80.65878 22.278214c-8.697235 -0.64497375 -17.46405 -2.617508 -26.118134 -1.5380554c-3.638153 0.4537964 -12.372681 1.8250198 -9.986877 4.608925c8.9730835 10.470276 26.675446 7.0056076 39.944885 10.755905c23.320831 6.5910797 46.605347 13.310059 69.90552 19.973747c5.7950745 1.6573563 11.688507 -3.0941238 17.669281 -3.842514c12.195374 -1.5260468 24.580933 0 36.8714 0" fill-rule="evenodd"/><path fill="#000000" fill-opacity="0.0" d="m342.60892 272.7034c-3.534607 7.075287 -13.237305 9.022858 -20.740143 11.524933c-35.07431 11.696777 -77.97893 3.3763123 -109.8504 -15.364807c-20.299728 -11.936707 -28.623428 -42.67563 -51.467194 -48.39633" fill-rule="evenodd"/><path stroke="#ff9900" stroke-width="1.0" stroke-linejoin="round" stroke-linecap="butt" d="m342.60892 272.7034c-3.534607 7.075287 -13.237305 9.022858 -20.740143 11.524933c-35.07431 11.696777 -77.97893 3.3763123 -109.8504 -15.364807c-20.299728 -11.936707 -28.623428 -42.67563 -51.467194 -48.39633" fill-rule="evenodd"/><path fill="#000000" fill-opacity="0.0" d="m48.396324 270.39938c13.024605 1.6301575 26.118149 -6.2991333 36.87139 -13.826782c8.456078 -5.9195404 17.399376 -19.427734 26.887138 -15.362198c14.819763 6.350281 17.174675 27.296127 26.11811 40.71129c8.071365 12.107056 24.290909 24.263367 38.409454 20.742767" fill-rule="evenodd"/><path stroke="#ff9900" stroke-width="1.0" stroke-linejoin="round" stroke-linecap="butt" d="m48.396324 270.39938c13.024605 1.6301575 26.118149 -6.2991333 36.87139 -13.826782c8.456078 -5.9195404 17.399376 -19.427734 26.887138 -15.362198c14.819763 6.350281 17.174675 27.296127 26.11811 40.71129c8.071365 12.107056 24.290909 24.263367 38.409454 20.742767" fill-rule="evenodd"/><path fill="#000000" fill-opacity="0.0" d="m208.94489 313.41733c13.897705 8.334839 25.902756 20.893707 41.48294 25.351715c17.986023 5.1463623 37.368286 2.3044434 56.07611 2.3044434c20.505554 0 66.152435 -2.372467 59.149597 16.900269c-9.070801 24.96408 -49.326508 31.76236 -75.28082 26.118103c-26.948364 -5.8604126 -52.311554 -21.509186 -79.88977 -21.509186" fill-rule="evenodd"/><path stroke="#ff9900" stroke-width="1.0" stroke-linejoin="round" stroke-linecap="butt" d="m208.94489 313.41733c13.897705 8.334839 25.902756 20.893707 41.48294 25.351715c17.986023 5.1463623 37.368286 2.3044434 56.07611 2.3044434c20.505554 0 66.152435 -2.372467 59.149597 16.900269c-9.070801 24.96408 -49.326508 31.76236 -75.28082 26.118103c-26.948364 -5.8604126 -52.311554 -21.509186 -79.88977 -21.509186" fill-rule="evenodd"/><path fill="#000000" fill-opacity="0.0" d="m474.98227 308.042c13.470825 20.606659 45.961395 44.684814 32.495514 65.293976c-17.177948 26.290344 -67.25662 17.669281 -101.87674 17.669281" fill-rule="evenodd"/><path stroke="#ff9900" stroke-width="1.0" stroke-linejoin="round" stroke-linecap="butt" d="m474.98227 308.042c13.470825 20.606659 45.961395 44.684814 32.495514 65.293976c-17.177948 26.290344 -67.25662 17.669281 -101.87674 17.669281" fill-rule="evenodd"/><path fill="#000000" fill-opacity="0.0" d="m351.07266 414.52957c-24.627136 4.4375305 -50.95578 -2.2986755 -75.58478 -6.7308655c-33.439224 -6.0176697 -72.53801 -4.3967285 -99.74402 -19.631073c-33.915253 -18.991272 -56.207718 -56.387177 -98.963905 -59.458588c-22.040672 -1.583313 -35.768356 19.014496 -51.430878 30.28891" fill-rule="evenodd"/><path stroke="#ff9900" stroke-width="1.0" stroke-linejoin="round" stroke-linecap="butt" d="m351.07266 414.52957c-24.627136 4.4375305 -50.95578 -2.2986755 -75.58478 -6.7308655c-33.439224 -6.0176697 -72.53801 -4.3967285 -99.74402 -19.631073c-33.915253 -18.991272 -56.207718 -56.387177 -98.963905 -59.458588c-22.040672 -1.583313 -35.768356 19.014496 -51.430878 30.28891" fill-rule="evenodd"/><path fill="#000000" fill-opacity="0.0" d="m273.98682 495.05804c-21.386673 0 -43.536133 0.15280151 -63.825317 -4.586151c-4.0913696 -0.95562744 -8.182663 -3.8246765 -12.27356 -2.8680725c-8.360321 1.954956 -7.3967743 11.264496 -9.818863 17.202484c-1.9616547 4.809204 -7.156021 11.142731 -2.454712 14.906464c17.472977 13.988342 50.900726 10.68866 76.91527 14.334412c30.18872 4.230713 61.01297 10.177612 91.64633 8.028198c21.37207 -1.4996338 40.41931 -10.446899 61.370636 -13.76239c17.68811 -2.7990723 36.224243 -6.1379395 50.732605 -13.760376" fill-rule="evenodd"/><path stroke="#ff9900" stroke-width="1.0" stroke-linejoin="round" stroke-linecap="butt" d="m273.98682 495.05804c-21.386673 0 -43.536133 0.15280151 -63.825317 -4.586151c-4.0913696 -0.95562744 -8.182663 -3.8246765 -12.27356 -2.8680725c-8.360321 1.954956 -7.3967743 11.264496 -9.818863 17.202484c-1.9616547 4.809204 -7.156021 11.142731 -2.454712 14.906464c17.472977 13.988342 50.900726 10.68866 76.91527 14.334412c30.18872 4.230713 61.01297 10.177612 91.64633 8.028198c21.37207 -1.4996338 40.41931 -10.446899 61.370636 -13.76239c17.68811 -2.7990723 36.224243 -6.1379395 50.732605 -13.760376" fill-rule="evenodd"/><path fill="#000000" fill-opacity="0.0" d="m344.14435 487.7953c43.62213 -11.5216675 91.32651 -14.668549 130.86484 -34.56958c14.146851 -7.1206055 32.848633 -11.744537 40.131073 -24.580048" fill-rule="evenodd"/><path stroke="#ff9900" stroke-width="1.0" stroke-linejoin="round" stroke-linecap="butt" d="m344.14435 487.7953c43.62213 -11.5216675 91.32651 -14.668549 130.86484 -34.56958c14.146851 -7.1206055 32.848633 -11.744537 40.131073 -24.580048" fill-rule="evenodd"/><path fill="#000000" fill-opacity="0.0" d="m-0.76902884 515.44836c14.865042 -9.285919 34.003315 -9.29776 51.469814 -10.753296c21.459187 -1.788269 44.365406 -4.4884033 64.52756 3.0734863c9.399284 3.525238 12.599731 15.645691 18.4357 23.81366c10.004623 14.00238 21.237793 27.77118 35.335953 37.64038c27.2697 19.089722 63.50258 24.580078 96.79004 24.580078" fill-rule="evenodd"/><path stroke="#ff9900" stroke-width="1.0" stroke-linejoin="round" stroke-linecap="butt" d="m-0.76902884 515.44836c14.865042 -9.285919 34.003315 -9.29776 51.469814 -10.753296c21.459187 -1.788269 44.365406 -4.4884033 64.52756 3.0734863c9.399284 3.525238 12.599731 15.645691 18.4357 23.81366c10.004623 14.00238 21.237793 27.77118 35.335953 37.64038c27.2697 19.089722 63.50258 24.580078 96.79004 24.580078" fill-rule="evenodd"/><path fill="#000000" fill-opacity="0.0" d="m504.69553 550.7848c-7.878937 4.5028076 -17.560669 4.6619263 -26.118103 7.682373c-52.707397 18.603882 -106.961334 39.944885 -162.85565 39.944885" fill-rule="evenodd"/><path stroke="#ff9900" stroke-width="1.0" stroke-linejoin="round" stroke-linecap="butt" d="m504.69553 550.7848c-7.878937 4.5028076 -17.560669 4.6619263 -26.118103 7.682373c-52.707397 18.603882 -106.961334 39.944885 -162.85565 39.944885" fill-rule="evenodd"/><path fill="#000000" fill-opacity="0.0" d="m327.24408 627.6037c52.06656 37.201233 134.18521 -5.998474 187.43835 -41.480347" fill-rule="evenodd"/><path stroke="#ff9900" stroke-width="1.0" stroke-linejoin="round" stroke-linecap="butt" d="m327.24408 627.6037c52.06656 37.201233 134.18521 -5.998474 187.43835 -41.480347" fill-rule="evenodd"/><path fill="#000000" fill-opacity="0.0" d="m60.68504 592.26733c16.26778 -12.197388 43.44521 -16.919983 60.687664 -6.144348c8.952629 5.5949097 17.013542 19.746826 12.291344 29.188965c-5.795326 11.58783 -23.982285 11.000366 -36.874023 12.291321c-22.28476 2.2315063 -44.435802 6.913391 -66.832016 6.913391" fill-rule="evenodd"/><path stroke="#ffff00" stroke-width="1.0" stroke-linejoin="round" stroke-linecap="butt" d="m60.68504 592.26733c16.26778 -12.197388 43.44521 -16.919983 60.687664 -6.144348c8.952629 5.5949097 17.013542 19.746826 12.291344 29.188965c-5.795326 11.58783 -23.982285 11.000366 -36.874023 12.291321c-22.28476 2.2315063 -44.435802 6.913391 -66.832016 6.913391" fill-rule="evenodd"/><path fill="#000000" fill-opacity="0.0" d="m71.44095 246.5853c13.121231 -8.747482 24.984367 -20.362244 39.944878 -25.349075c12.453407 -4.1511383 27.58387 -4.55249 36.874016 -13.826767" fill-rule="evenodd"/><path stroke="#ffff00" stroke-width="1.0" stroke-linejoin="round" stroke-linecap="butt" d="m71.44095 246.5853c13.121231 -8.747482 24.984367 -20.362244 39.944878 -25.349075c12.453407 -4.1511383 27.58387 -4.55249 36.874016 -13.826767" fill-rule="evenodd"/><path fill="#000000" fill-opacity="0.0" d="m155.17323 140.57742c36.940582 0 67.5956 33.02867 93.71654 59.149612" fill-rule="evenodd"/><path stroke="#ffff00" stroke-width="1.0" stroke-linejoin="round" stroke-linecap="butt" d="m155.17323 140.57742c36.940582 0 67.5956 33.02867 93.71654 59.149612" fill-rule="evenodd"/><path fill="#000000" fill-opacity="0.0" d="m33.801823 109.850395c-8.541582 11.392021 -22.666138 19.986732 -26.11811 33.80053c-5.9647303 23.86911 3.0708666 49.14229 3.0708666 73.74541" fill-rule="evenodd"/><path stroke="#ffff00" stroke-width="1.0" stroke-linejoin="round" stroke-linecap="butt" d="m33.801823 109.850395c-8.541582 11.392021 -22.666138 19.986732 -26.11811 33.80053c-5.9647303 23.86911 3.0708666 49.14229 3.0708666 73.74541" fill-rule="evenodd"/><path fill="#000000" fill-opacity="0.0" d="m387.16272 175.91406c36.527405 -13.693863 75.920074 -43.075684 112.92389 -30.727036" fill-rule="evenodd"/><path stroke="#ffff00" stroke-width="1.0" stroke-linejoin="round" stroke-linecap="butt" d="m387.16272 175.91406c36.527405 -13.693863 75.920074 -43.075684 112.92389 -30.727036" fill-rule="evenodd"/><path fill="#000000" fill-opacity="0.0" d="m494.70865 81.42782c-6.024536 21.10141 -27.872803 38.464577 -49.16272 43.784782" fill-rule="evenodd"/><path stroke="#ffff00" stroke-width="1.0" stroke-linejoin="round" stroke-linecap="butt" d="m494.70865 81.42782c-6.024536 21.10141 -27.872803 38.464577 -49.16272 43.784782" fill-rule="evenodd"/><path fill="#000000" fill-opacity="0.0" d="m401.75854 59.149605c30.721588 -12.797749 62.90561 -21.759796 94.485535 -32.262466" fill-rule="evenodd"/><path stroke="#ffff00" stroke-width="1.0" stroke-linejoin="round" stroke-linecap="butt" d="m401.75854 59.149605c30.721588 -12.797749 62.90561 -21.759796 94.485535 -32.262466" fill-rule="evenodd"/><path fill="#000000" fill-opacity="0.0" d="m16.131233 49.16273c32.469147 -16.229027 68.17331 -30.727036 104.47244 -30.727036" fill-rule="evenodd"/><path stroke="#ffff00" stroke-width="1.0" stroke-linejoin="round" stroke-linecap="butt" d="m16.131233 49.16273c32.469147 -16.229027 68.17331 -30.727036 104.47244 -30.727036" fill-rule="evenodd"/><path fill="#000000" fill-opacity="0.0" d="m279.6168 270.39896c36.036224 0 74.55325 -0.77337646 106.77954 -16.900269" fill-rule="evenodd"/><path stroke="#ffff00" stroke-width="1.0" stroke-linejoin="round" stroke-linecap="butt" d="m279.6168 270.39896c36.036224 0 74.55325 -0.77337646 106.77954 -16.900269" fill-rule="evenodd"/><path fill="#000000" fill-opacity="0.0" d="m328.01312 322.63605c21.245605 -1.6332092 42.45761 -4.0477905 63.758545 -4.6089478c11.799561 -0.31085205 26.267273 -5.2510376 35.335938 2.3044739c4.630707 3.8580322 -0.49658203 12.654327 -3.8398743 17.669281c-11.352997 17.02951 -23.436829 36.492615 -42.24936 44.553802" fill-rule="evenodd"/><path stroke="#ffff00" stroke-width="1.0" stroke-linejoin="round" stroke-linecap="butt" d="m328.01312 322.63605c21.245605 -1.6332092 42.45761 -4.0477905 63.758545 -4.6089478c11.799561 -0.31085205 26.267273 -5.2510376 35.335938 2.3044739c4.630707 3.8580322 -0.49658203 12.654327 -3.8398743 17.669281c-11.352997 17.02951 -23.436829 36.492615 -42.24936 44.553802" fill-rule="evenodd"/><path fill="#000000" fill-opacity="0.0" d="m333.39108 436.32935c42.27118 -12.679901 88.85098 -17.106445 132.12598 -8.451447" fill-rule="evenodd"/><path stroke="#ffff00" stroke-width="1.0" stroke-linejoin="round" stroke-linecap="butt" d="m333.39108 436.32935c42.27118 -12.679901 88.85098 -17.106445 132.12598 -8.451447" fill-rule="evenodd"/><path fill="#000000" fill-opacity="0.0" d="m134.43045 390.2362c-14.6621475 -2.4422913 -28.920624 -8.4487915 -43.784782 -8.4487915c-21.65757 0 -41.12626 14.875793 -59.149605 26.884491" fill-rule="evenodd"/><path stroke="#ffff00" stroke-width="1.0" stroke-linejoin="round" stroke-linecap="butt" d="m134.43045 390.2362c-14.6621475 -2.4422913 -28.920624 -8.4487915 -43.784782 -8.4487915c-21.65757 0 -41.12626 14.875793 -59.149605 26.884491" fill-rule="evenodd"/><path fill="#000000" fill-opacity="0.0" d="m272.7034 479.3477c20.385986 2.033722 41.2995 -2.895691 61.456696 0.76641846" fill-rule="evenodd"/><path stroke="#ffff00" stroke-width="1.0" stroke-linejoin="round" stroke-linecap="butt" d="m272.7034 479.3477c20.385986 2.033722 41.2995 -2.895691 61.456696 0.76641846" fill-rule="evenodd"/><path fill="#000000" fill-opacity="0.0" d="m435.55905 490.86877c13.035156 -7.245056 28.733887 -8.0065 43.01837 -12.291351" fill-rule="evenodd"/><path stroke="#ffff00" stroke-width="1.0" stroke-linejoin="round" stroke-linecap="butt" d="m435.55905 490.86877c13.035156 -7.245056 28.733887 -8.0065 43.01837 -12.291351" fill-rule="evenodd"/><path fill="#000000" fill-opacity="0.0" d="m129.05511 286.5328c3.4981232 12.246399 8.605698 25.969513 19.204727 33.031494c18.4711 12.307068 46.82286 0.7507019 65.29396 13.057739" fill-rule="evenodd"/><path stroke="#ffff00" stroke-width="1.0" stroke-linejoin="round" stroke-linecap="butt" d="m129.05511 286.5328c3.4981232 12.246399 8.605698 25.969513 19.204727 33.031494c18.4711 12.307068 46.82286 0.7507019 65.29396 13.057739" fill-rule="evenodd"/><path fill="#000000" fill-opacity="0.0" d="m215.09186 74.514435c21.181564 8.469734 45.555298 -3.0734863 68.36746 -3.0734863" fill-rule="evenodd"/><path stroke="#ffff00" stroke-width="1.0" stroke-linejoin="round" stroke-linecap="butt" d="m215.09186 74.514435c21.181564 8.469734 45.555298 -3.0734863 68.36746 -3.0734863" fill-rule="evenodd"/><path fill="#000000" fill-opacity="0.0" d="m199.72704 561.5407c35.08893 17.55194 76.76079 19.973755 115.994736 19.973755" fill-rule="evenodd"/><path stroke="#ffff00" stroke-width="1.0" stroke-linejoin="round" stroke-linecap="butt" d="m199.72704 561.5407c35.08893 17.55194 76.76079 19.973755 115.994736 19.973755" fill-rule="evenodd"/><path fill="#000000" fill-opacity="0.0" d="m162.85564 448.6168c15.001907 12.862976 31.528244 25.93103 50.698166 30.729675" fill-rule="evenodd"/><path stroke="#ff0000" stroke-width="1.0" stroke-linejoin="round" stroke-linecap="butt" d="m162.85564 448.6168c15.001907 12.862976 31.528244 25.93103 50.698166 30.729675" fill-rule="evenodd"/><path fill="#000000" fill-opacity="0.0" d="m22.278215 338.0c-11.55972 11.551819 -26.872303 18.618958 -39.947506 28.422577" fill-rule="evenodd"/><path stroke="#ff0000" stroke-width="1.0" stroke-linejoin="round" stroke-linecap="butt" d="m22.278215 338.0c-11.55972 11.551819 -26.872303 18.618958 -39.947506 28.422577" fill-rule="evenodd"/><path fill="#000000" fill-opacity="0.0" d="m95.25459 427.1076c22.346794 16.774414 48.611008 31.351013 62.989502 55.309723" fill-rule="evenodd"/><path stroke="#ff9900" stroke-width="1.0" stroke-linejoin="round" stroke-linecap="butt" d="m95.25459 427.1076c22.346794 16.774414 48.611008 31.351013 62.989502 55.309723" fill-rule="evenodd"/><path fill="#000000" fill-opacity="0.0" d="m152.86876 396.38058c7.304184 21.925018 41.485672 23.582977 64.52757 25.351685c20.063614 1.5401306 38.531403 12.055908 58.380585 15.362213c11.71698 1.9517212 28.749573 -5.276245 35.335938 4.608917" fill-rule="evenodd"/><path stroke="#ff0000" stroke-width="1.0" stroke-linejoin="round" stroke-linecap="butt" d="m152.86876 396.38058c7.304184 21.925018 41.485672 23.582977 64.52757 25.351685c20.063614 1.5401306 38.531403 12.055908 58.380585 15.362213c11.71698 1.9517212 28.749573 -5.276245 35.335938 4.608917" fill-rule="evenodd"/><path fill="#000000" fill-opacity="0.0" d="m155.17323 29.190931c18.240997 13.682703 39.731613 24.669722 62.2231 28.422571c22.21753 3.7071419 44.980133 -4.5227356 66.832 -9.986877c22.654053 -5.6647224 46.55136 -4.608921 69.90289 -4.608921c17.735046 0 35.949524 -25.976622 50.700806 -16.131235" fill-rule="evenodd"/><path stroke="#ff0000" stroke-width="1.0" stroke-linejoin="round" stroke-linecap="butt" d="m155.17323 29.190931c18.240997 13.682703 39.731613 24.669722 62.2231 28.422571c22.21753 3.7071419 44.980133 -4.5227356 66.832 -9.986877c22.654053 -5.6647224 46.55136 -4.608921 69.90289 -4.608921c17.735046 0 35.949524 -25.976622 50.700806 -16.131235" fill-rule="evenodd"/><path fill="#000000" fill-opacity="0.0" d="m197.42258 437.86353c23.905975 13.278076 54.29193 13.370178 81.427826 9.986877" fill-rule="evenodd"/><path stroke="#ffff00" stroke-width="1.0" stroke-linejoin="round" stroke-linecap="butt" d="m197.42258 437.86353c23.905975 13.278076 54.29193 13.370178 81.427826 9.986877" fill-rule="evenodd"/><path fill="#000000" fill-opacity="0.0" d="m378.71365 411.7454c14.421539 0 28.793518 -6.982422 43.01837 -4.608917c17.516968 2.922821 35.42514 7.893097 53.00525 5.37796c13.1267395 -1.8779907 25.915466 -6.913391 39.175873 -6.913391" fill-rule="evenodd"/><path stroke="#ff0000" stroke-width="1.0" stroke-linejoin="round" stroke-linecap="butt" d="m378.71365 411.7454c14.421539 0 28.793518 -6.982422 43.01837 -4.608917c17.516968 2.922821 35.42514 7.893097 53.00525 5.37796c13.1267395 -1.8779907 25.915466 -6.913391 39.175873 -6.913391" fill-rule="evenodd"/><path fill="#000000" fill-opacity="0.0" d="m54.540684 546.1762c7.287346 -7.2873535 17.427395 -15.10614 27.653545 -13.826782c15.574142 1.9484253 28.024925 14.201599 41.482933 22.27826" fill-rule="evenodd"/><path stroke="#ffff00" stroke-width="1.0" stroke-linejoin="round" stroke-linecap="butt" d="m54.540684 546.1762c7.287346 -7.2873535 17.427395 -15.10614 27.653545 -13.826782c15.574142 1.9484253 28.024925 14.201599 41.482933 22.27826" fill-rule="evenodd"/><path fill="#000000" fill-opacity="0.0" d="m80.65879 141.34645c21.951096 13.712418 53.034233 5.119522 77.585304 -3.0734863" fill-rule="evenodd"/><path stroke="#ffff00" stroke-width="1.0" stroke-linejoin="round" stroke-linecap="butt" d="m80.65879 141.34645c21.951096 13.712418 53.034233 5.119522 77.585304 -3.0734863" fill-rule="evenodd"/><path fill="#000000" fill-opacity="0.0" d="m426.34393 281.33557c26.200745 3.6868591 58.370575 -0.34118652 77.07773 -18.765686c8.740814 -8.608749 6.3557434 -23.799088 6.3557434 -35.968475c0 -11.283066 4.135681 -25.64444 -3.9719849 -33.622757c-7.821411 -7.6966553 -20.7229 -9.382858 -31.784058 -9.382858" fill-rule="evenodd"/><path stroke="#ff9900" stroke-width="1.0" stroke-linejoin="round" stroke-linecap="butt" d="m426.34393 281.33557c26.200745 3.6868591 58.370575 -0.34118652 77.07773 -18.765686c8.740814 -8.608749 6.3557434 -23.799088 6.3557434 -35.968475c0 -11.283066 4.135681 -25.64444 -3.9719849 -33.622757c-7.821411 -7.6966553 -20.7229 -9.382858 -31.784058 -9.382858" fill-rule="evenodd"/><path fill="#000000" fill-opacity="0.0" d="m429.04724 282.69717c-21.644714 -2.4077148 -44.63568 -9.198395 -65.293945 -2.3044739" fill-rule="evenodd"/><path stroke="#ff9900" stroke-width="1.0" stroke-linejoin="round" stroke-linecap="butt" d="m429.04724 282.69717c-21.644714 -2.4077148 -44.63568 -9.198395 -65.293945 -2.3044739" fill-rule="evenodd"/></g></svg>