<svg version="1.1" viewBox="0.0 0.0 166.0 292.0" fill="none" stroke="none" stroke-linecap="square" stroke-miterlimit="10" xmlns:xlink="http://www.w3.org/1999/xlink" xmlns="http://www.w3.org/2000/svg"><clipPath id="p.0"><path d="m0 0l166.0 0l0 292.0l-166.0 0l0 -292.0z" clip-rule="nonzero"/></clipPath><g clip-path="url(#p.0)"><path fill="#000000" fill-opacity="0.0" d="m0 0l166.0 0l0 292.0l-166.0 0z" fill-rule="evenodd"/><path fill="#ffffff" d="m32.480316 50.283466c0 -23.352514 22.526775 -42.283466 50.314957 -42.283466c27.788185 0 50.314957 18.930952 50.314957 42.283466c0 23.352512 -22.526772 42.283466 -50.314957 42.283466c-27.788181 0 -50.314957 -18.930954 -50.314957 -42.283466z" fill-rule="evenodd"/><path stroke="#000000" stroke-width="1.0" stroke-linejoin="round" stroke-linecap="butt" d="m32.480316 50.283466c0 -23.352514 22.526775 -42.283466 50.314957 -42.283466c27.788185 0 50.314957 18.930952 50.314957 42.283466c0 23.352512 -22.526772 42.283466 -50.314957 42.283466c-27.788181 0 -50.314957 -18.930954 -50.314957 -42.283466z" fill-rule="evenodd"/><path fill="#000000" fill-opacity="0.0" d="m82.79527 92.561844l0.88188934 93.10237" fill-rule="evenodd"/><path stroke="#000000" stroke-width="1.0" stroke-linejoin="round" stroke-linecap="butt" d="m82.79527 92.561844l0.88188934 93.10237" fill-rule="evenodd"/><path fill="#000000" fill-opacity="0.0" d="m81.926506 183.08261l-45.98425 89.66928" fill-rule="evenodd"/><path stroke="#000000" stroke-width="1.0" stroke-linejoin="round" stroke-linecap="butt" d="m81.926506 183.08261l-45.98425 89.66928" fill-rule="evenodd"/><path fill="#000000" fill-opacity="0.0" d="m83.661415 185.64345l47.716545 93.95274" fill-rule="evenodd"/><path stroke="#000000" stroke-width="1.0" stroke-linejoin="round" stroke-linecap="butt" d="m83.661415 185.64345l47.716545 93.95274" fill-rule="evenodd"/><path fill="#000000" fill-opacity="0.0" d="m85.396324 139.52515l65.07087 -41.007874" fill-rule="evenodd"/><path stroke="#000000" stroke-width="1.0" stroke-linejoin="round" stroke-linecap="butt" d="m85.396324 139.52515l65.07087 -41.007874" fill-rule="evenodd"/><path fill="#000000" fill-opacity="0.0" d="m78.456696 137.81706l-58.110237 -34.173233" fill-rule="evenodd"/><path stroke="#000000" stroke-width="1.0" stroke-linejoin="round" stroke-linecap="butt" d="m78.456696 137.81706l-58.110237 -34.173233" fill-rule="evenodd"/><path fill="#000000" fill-opacity="0.0" d="m61.25197 59.45669l43.968506 0" fill-rule="evenodd"/><path stroke="#000000" stroke-width="1.0" stroke-linejoin="round" stroke-linecap="butt" d="m61.25197 59.45669l43.968506 0" fill-rule="evenodd"/><path fill="#f4cccc" d="m96.90896 72.439285l-9.039291 0.021270752l-2.1732635 -2.1681595l0 -10.8661l13.385826 -0.03149414l0 10.866093c0 1.2002716 -0.9730072 2.1755676 -2.1732712 2.1783905z" fill-rule="evenodd"/><path stroke="#000000" stroke-width="1.0" stroke-linejoin="round" stroke-linecap="butt" d="m96.90896 72.439285l-9.039291 0.021270752l-2.1732635 -2.1681595l0 -10.8661l13.385826 -0.03149414l0 10.866093c0 1.2002716 -0.9730072 2.1755676 -2.1732712 2.1783905z" fill-rule="evenodd"/><path fill="#000000" fill-opacity="0.0" d="m60.51181 30.254593l17.952759 12.3149605" fill-rule="evenodd"/><path stroke="#000000" stroke-width="1.0" stroke-linejoin="round" stroke-linecap="butt" d="m60.51181 30.254593l17.952759 12.3149605" fill-rule="evenodd"/><path fill="#000000" fill-opacity="0.0" d="m77.396324 23.923885l-12.661415 20.062992" fill-rule="evenodd"/><path stroke="#000000" stroke-width="1.0" stroke-linejoin="round" stroke-linecap="butt" d="m77.396324 23.923885l-12.661415 20.062992" fill-rule="evenodd"/><path fill="#000000" fill-opacity="0.0" d="m90.7664 31.661417l22.519684 15.84252" fill-rule="evenodd"/><path stroke="#000000" stroke-width="1.0" stroke-linejoin="round" stroke-linecap="butt" d="m90.7664 31.661417l22.519684 15.84252" fill-rule="evenodd"/><path fill="#000000" fill-opacity="0.0" d="m109.41207 33.070866l-13.354332 12.661419" fill-rule="evenodd"/><path stroke="#000000" stroke-width="1.0" stroke-linejoin="round" stroke-linecap="butt" d="m109.41207 33.070866l-13.354332 12.661419" fill-rule="evenodd"/></g></svg>